<svg id="Capa_1" enable-background="new 0 0 511.236 511.236" height="512" viewBox="0 0 511.236 511.236" width="512" xmlns="http://www.w3.org/2000/svg"><g><path d="m497.717 274.583c-23.877-36.394-77.224-7.201-77.224-7.201l-3.149 10.203v-31.573h-.735c-2.07-39.499-93.324-71.294-205.608-71.294s-203.538 31.796-205.608 71.294h-.734v55.508c0 72.776 42.797 135.548 104.591 164.549-3.186 3.615-5.134 8.347-5.134 13.545v7.094c0 11.331 9.186 20.517 20.517 20.517h178.708c11.331 0 20.517-9.186 20.517-20.517v-7.095c0-6.19-2.754-11.728-7.089-15.49 22.236-11.113 41.871-26.65 57.756-45.462 107.359-33.63 150.916-101.821 123.192-144.078zm-101.182 111.416c13.281-25.239 20.809-53.978 20.809-84.479v-7.317c13.25-6.018 37.4-13.945 48.687 1.591 16.844 23.184-9.961 68.52-69.496 90.205z" fill="#f9fbfc"/><g fill="#eaa895"><path d="m415.078 269.884c-1.696 0-3.071 1.374-3.071 3.07s1.375 3.07 3.071 3.07c.902 0 1.705-.396 2.266-1.015v-4.112c-.562-.617-1.365-1.013-2.266-1.013z"/><path d="m404.807 280.154c-1.696 0-3.071 1.375-3.071 3.071s1.375 3.07 3.071 3.07 3.071-1.375 3.071-3.07c0-1.696-1.375-3.071-3.071-3.071z"/><path d="m415.078 289.68c-1.696 0-3.071 1.375-3.071 3.071s1.375 3.071 3.071 3.071c.902 0 1.705-.396 2.266-1.015v-4.112c-.562-.619-1.365-1.015-2.266-1.015z"/><path d="m404.807 299.951c-1.696 0-3.071 1.375-3.071 3.07 0 1.696 1.375 3.071 3.071 3.071s3.071-1.375 3.071-3.071-1.375-3.07-3.071-3.07z"/><path d="m415.078 315.617c.751 0 1.43-.28 1.964-.728.085-1.502.152-3.009.2-4.52-.555-.552-1.319-.893-2.164-.893-1.696 0-3.071 1.374-3.071 3.07s1.375 3.071 3.071 3.071z"/><path d="m404.807 319.747c-1.696 0-3.071 1.375-3.071 3.07 0 1.696 1.375 3.071 3.071 3.071s3.071-1.375 3.071-3.071c0-1.695-1.375-3.07-3.071-3.07z"/><path d="m404.807 339.543c-1.696 0-3.071 1.375-3.071 3.07 0 1.696 1.375 3.071 3.071 3.071s3.071-1.375 3.071-3.071c0-1.695-1.375-3.07-3.071-3.07z"/><path d="m404.807 359.339c-1.696 0-3.071 1.375-3.071 3.07 0 1.696 1.375 3.071 3.071 3.071.877 0 1.663-.373 2.223-.962.277-.779.557-1.557.824-2.34-.12-1.585-1.431-2.839-3.047-2.839z"/><path d="m395.281 289.68c-1.696 0-3.071 1.375-3.071 3.071s1.375 3.071 3.071 3.071 3.071-1.375 3.071-3.071-1.375-3.071-3.071-3.071z"/><path d="m385.011 299.951c-1.696 0-3.071 1.375-3.071 3.07 0 1.696 1.375 3.071 3.071 3.071s3.071-1.375 3.071-3.071c-.001-1.696-1.375-3.07-3.071-3.07z"/><path d="m395.281 309.476c-1.696 0-3.071 1.374-3.071 3.07s1.375 3.071 3.071 3.071 3.071-1.375 3.071-3.071c0-1.695-1.375-3.07-3.071-3.07z"/><path d="m385.011 319.747c-1.696 0-3.071 1.375-3.071 3.07 0 1.696 1.375 3.071 3.071 3.071s3.071-1.375 3.071-3.071c-.001-1.695-1.375-3.07-3.071-3.07z"/><path d="m395.281 329.272c-1.696 0-3.071 1.375-3.071 3.071s1.375 3.071 3.071 3.071 3.071-1.375 3.071-3.071-1.375-3.071-3.071-3.071z"/><path d="m385.011 339.543c-1.696 0-3.071 1.375-3.071 3.07 0 1.696 1.375 3.071 3.071 3.071s3.071-1.375 3.071-3.071c-.001-1.695-1.375-3.07-3.071-3.07z"/><path d="m395.281 349.068c-1.696 0-3.071 1.375-3.071 3.071s1.375 3.071 3.071 3.071 3.071-1.375 3.071-3.071-1.375-3.071-3.071-3.071z"/><path d="m385.011 359.339c-1.696 0-3.071 1.375-3.071 3.07 0 1.696 1.375 3.071 3.071 3.071s3.071-1.375 3.071-3.071c-.001-1.695-1.375-3.07-3.071-3.07z"/><path d="m395.281 368.864c-1.696 0-3.071 1.375-3.071 3.071s1.375 3.07 3.071 3.07 3.071-1.375 3.071-3.07c0-1.696-1.375-3.071-3.071-3.071z"/><path d="m385.011 379.135c-1.696 0-3.071 1.375-3.071 3.07 0 1.696 1.375 3.071 3.071 3.071s3.071-1.375 3.071-3.071c-.001-1.695-1.375-3.07-3.071-3.07z"/><path d="m385.011 398.932c-1.696 0-3.071 1.375-3.071 3.07 0 1.696 1.375 3.071 3.071 3.071.689 0 1.318-.235 1.831-.618.391-.578.768-1.167 1.152-1.75.053-.226.088-.46.088-.703-.001-1.696-1.375-3.07-3.071-3.07z"/><path d="m375.485 289.68c-1.696 0-3.071 1.375-3.071 3.071s1.375 3.071 3.071 3.071 3.071-1.375 3.071-3.071-1.375-3.071-3.071-3.071z"/><path d="m365.215 299.951c-1.696 0-3.071 1.375-3.071 3.07 0 1.696 1.375 3.071 3.071 3.071s3.071-1.375 3.071-3.071c-.001-1.696-1.375-3.07-3.071-3.07z"/><path d="m375.485 309.476c-1.696 0-3.071 1.374-3.071 3.07s1.375 3.071 3.071 3.071 3.071-1.375 3.071-3.071c0-1.695-1.375-3.07-3.071-3.07z"/><path d="m365.215 319.747c-1.696 0-3.071 1.375-3.071 3.07 0 1.696 1.375 3.071 3.071 3.071s3.071-1.375 3.071-3.071c-.001-1.695-1.375-3.07-3.071-3.07z"/><path d="m375.485 329.272c-1.696 0-3.071 1.375-3.071 3.071s1.375 3.071 3.071 3.071 3.071-1.375 3.071-3.071-1.375-3.071-3.071-3.071z"/><path d="m365.215 339.543c-1.696 0-3.071 1.375-3.071 3.07 0 1.696 1.375 3.071 3.071 3.071s3.071-1.375 3.071-3.071c-.001-1.695-1.375-3.07-3.071-3.07z"/><path d="m375.485 349.068c-1.696 0-3.071 1.375-3.071 3.071s1.375 3.071 3.071 3.071 3.071-1.375 3.071-3.071-1.375-3.071-3.071-3.071z"/><path d="m365.215 359.339c-1.696 0-3.071 1.375-3.071 3.07 0 1.696 1.375 3.071 3.071 3.071s3.071-1.375 3.071-3.071c-.001-1.695-1.375-3.07-3.071-3.07z"/><path d="m375.485 368.864c-1.696 0-3.071 1.375-3.071 3.071s1.375 3.07 3.071 3.07 3.071-1.375 3.071-3.07c0-1.696-1.375-3.071-3.071-3.071z"/><path d="m365.215 379.135c-1.696 0-3.071 1.375-3.071 3.07 0 1.696 1.375 3.071 3.071 3.071s3.071-1.375 3.071-3.071c-.001-1.695-1.375-3.07-3.071-3.07z"/><path d="m375.485 388.661c-1.696 0-3.071 1.375-3.071 3.071s1.375 3.07 3.071 3.07 3.071-1.375 3.071-3.07c0-1.697-1.375-3.071-3.071-3.071z"/><path d="m365.215 398.932c-1.696 0-3.071 1.375-3.071 3.07 0 1.696 1.375 3.071 3.071 3.071s3.071-1.375 3.071-3.071c-.001-1.696-1.375-3.07-3.071-3.07z"/><path d="m375.485 408.457c-1.696 0-3.071 1.375-3.071 3.071s1.375 3.07 3.071 3.07 3.071-1.375 3.071-3.07c0-1.696-1.375-3.071-3.071-3.071z"/><path d="m365.215 418.728c-1.696 0-3.071 1.375-3.071 3.07 0 1.696 1.375 3.071 3.071 3.071s3.071-1.375 3.071-3.071c-.001-1.695-1.375-3.07-3.071-3.07z"/><path d="m355.689 309.476c-1.696 0-3.071 1.374-3.071 3.07s1.375 3.071 3.071 3.071 3.071-1.375 3.071-3.071c0-1.695-1.375-3.07-3.071-3.07z"/><path d="m355.689 329.272c-1.696 0-3.071 1.375-3.071 3.071s1.375 3.071 3.071 3.071 3.071-1.375 3.071-3.071-1.375-3.071-3.071-3.071z"/><path d="m345.452 339.564c-1.696 0-3.071 1.375-3.071 3.071s1.375 3.07 3.071 3.07 3.071-1.375 3.071-3.07c0-1.696-1.375-3.071-3.071-3.071z"/><path d="m355.689 349.068c-1.696 0-3.071 1.375-3.071 3.071s1.375 3.071 3.071 3.071 3.071-1.375 3.071-3.071-1.375-3.071-3.071-3.071z"/><path d="m345.418 359.339c-1.696 0-3.071 1.375-3.071 3.07 0 1.696 1.375 3.071 3.071 3.071s3.071-1.375 3.071-3.071c0-1.695-1.375-3.07-3.071-3.07z"/><path d="m335.901 368.857c-1.696 0-3.071 1.375-3.071 3.07 0 1.696 1.375 3.071 3.071 3.071s3.071-1.375 3.071-3.071c-.001-1.695-1.375-3.07-3.071-3.07z"/><path d="m355.689 368.864c-1.696 0-3.071 1.375-3.071 3.071s1.375 3.07 3.071 3.07 3.071-1.375 3.071-3.07c0-1.696-1.375-3.071-3.071-3.071z"/><path d="m345.418 379.135c-1.696 0-3.071 1.375-3.071 3.07 0 1.696 1.375 3.071 3.071 3.071s3.071-1.375 3.071-3.071c0-1.695-1.375-3.07-3.071-3.07z"/><path d="m355.689 388.661c-1.696 0-3.071 1.375-3.071 3.071s1.375 3.07 3.071 3.07 3.071-1.375 3.071-3.07c0-1.697-1.375-3.071-3.071-3.071z"/><path d="m345.418 398.932c-1.696 0-3.071 1.375-3.071 3.07 0 1.696 1.375 3.071 3.071 3.071s3.071-1.375 3.071-3.071-1.375-3.07-3.071-3.07z"/><path d="m355.689 408.457c-1.696 0-3.071 1.375-3.071 3.071s1.375 3.07 3.071 3.07 3.071-1.375 3.071-3.07c0-1.696-1.375-3.071-3.071-3.071z"/><path d="m345.418 418.728c-1.696 0-3.071 1.375-3.071 3.07 0 1.696 1.375 3.071 3.071 3.071s3.071-1.375 3.071-3.071c0-1.695-1.375-3.07-3.071-3.07z"/><path d="m355.689 434.394c1.696 0 3.071-1.375 3.071-3.071s-1.375-3.07-3.071-3.07-3.071 1.375-3.071 3.07c0 1.697 1.375 3.071 3.071 3.071z"/><path d="m345.418 438.524c-1.696 0-3.071 1.375-3.071 3.07 0 1.696 1.375 3.07 3.071 3.07s3.071-1.374 3.071-3.07c0-1.695-1.375-3.07-3.071-3.07z"/><path d="m335.893 388.661c-1.696 0-3.071 1.375-3.071 3.071s1.375 3.07 3.071 3.07 3.071-1.375 3.071-3.07c0-1.697-1.375-3.071-3.071-3.071z"/><path d="m325.622 398.932c-1.696 0-3.071 1.375-3.071 3.07 0 1.696 1.375 3.071 3.071 3.071s3.071-1.375 3.071-3.071-1.375-3.07-3.071-3.07z"/><path d="m335.893 408.457c-1.696 0-3.071 1.375-3.071 3.071s1.375 3.07 3.071 3.07 3.071-1.375 3.071-3.07c0-1.696-1.375-3.071-3.071-3.071z"/><path d="m325.622 418.728c-1.696 0-3.071 1.375-3.071 3.07 0 1.696 1.375 3.071 3.071 3.071s3.071-1.375 3.071-3.071c0-1.695-1.375-3.07-3.071-3.07z"/><path d="m335.893 428.253c-1.696 0-3.071 1.375-3.071 3.07 0 1.696 1.375 3.071 3.071 3.071s3.071-1.375 3.071-3.071c0-1.695-1.375-3.07-3.071-3.07z"/><path d="m325.622 438.524c-1.696 0-3.071 1.375-3.071 3.07 0 1.696 1.375 3.07 3.071 3.07s3.071-1.374 3.071-3.07c0-1.695-1.375-3.07-3.071-3.07z"/><path d="m335.893 448.049c-1.696 0-3.071 1.375-3.071 3.071s1.375 3.07 3.071 3.07c.177 0 .349-.023.518-.052.687-.449 1.376-.895 2.057-1.353.311-.48.496-1.05.496-1.665 0-1.696-1.375-3.071-3.071-3.071z"/><path d="m316.097 408.457c-1.696 0-3.071 1.375-3.071 3.071s1.375 3.07 3.071 3.07 3.071-1.375 3.071-3.07c0-1.696-1.375-3.071-3.071-3.071z"/><path d="m305.826 418.728c-1.696 0-3.07 1.375-3.07 3.07 0 1.696 1.375 3.071 3.07 3.071 1.696 0 3.071-1.375 3.071-3.071 0-1.695-1.375-3.07-3.071-3.07z"/><path d="m316.097 428.253c-1.696 0-3.071 1.375-3.071 3.07 0 1.696 1.375 3.071 3.071 3.071s3.071-1.375 3.071-3.071c0-1.695-1.375-3.07-3.071-3.07z"/><path d="m305.826 438.524c-1.696 0-3.07 1.375-3.07 3.07 0 1.696 1.375 3.07 3.07 3.07 1.696 0 3.071-1.374 3.071-3.07 0-1.695-1.375-3.07-3.071-3.07z"/><path d="m316.097 448.049c-1.696 0-3.071 1.375-3.071 3.071s1.375 3.07 3.071 3.07 3.071-1.375 3.071-3.07c0-1.696-1.375-3.071-3.071-3.071z"/><path d="m305.826 458.32c-1.696 0-3.07 1.375-3.07 3.07 0 1.696 1.375 3.071 3.07 3.071 1.696 0 3.071-1.375 3.071-3.071 0-1.695-1.375-3.07-3.071-3.07z"/><path d="m296.301 428.253c-1.696 0-3.071 1.375-3.071 3.07 0 1.696 1.375 3.071 3.071 3.071s3.071-1.375 3.071-3.071c-.001-1.695-1.375-3.07-3.071-3.07z"/><path d="m286.03 438.524c-1.696 0-3.071 1.375-3.071 3.07 0 1.696 1.375 3.07 3.071 3.07s3.071-1.374 3.071-3.07c0-1.695-1.375-3.07-3.071-3.07z"/><path d="m296.301 448.049c-1.696 0-3.071 1.375-3.071 3.071s1.375 3.07 3.071 3.07 3.071-1.375 3.071-3.07c-.001-1.696-1.375-3.071-3.071-3.071z"/><path d="m286.03 458.32c-1.696 0-3.071 1.375-3.071 3.07 0 1.696 1.375 3.071 3.071 3.071s3.071-1.375 3.071-3.071c0-1.695-1.375-3.07-3.071-3.07z"/><path d="m299.371 470.916c0-1.695-1.375-3.07-3.071-3.07s-3.071 1.375-3.071 3.07c0 1.487 1.058 2.727 2.462 3.009.983-.33 1.959-.677 2.934-1.024.459-.536.746-1.224.746-1.985z"/><path d="m276.505 448.049c-1.696 0-3.071 1.375-3.071 3.071s1.375 3.07 3.071 3.07 3.071-1.375 3.071-3.07c-.001-1.696-1.376-3.071-3.071-3.071z"/><path d="m263.163 461.391c0 1.696 1.375 3.071 3.071 3.071s3.071-1.375 3.071-3.071-1.375-3.07-3.071-3.07c-1.696-.001-3.071 1.374-3.071 3.07z"/><path d="m276.505 467.845c-1.696 0-3.071 1.375-3.071 3.07 0 1.696 1.375 3.071 3.071 3.071s3.071-1.375 3.071-3.071c-.001-1.695-1.376-3.07-3.071-3.07z"/><path d="m253.638 470.916c0 1.696 1.375 3.071 3.071 3.071s3.071-1.375 3.071-3.071c0-1.695-1.375-3.07-3.071-3.07s-3.071 1.374-3.071 3.07z"/><path d="m249.508 481.187c0-1.696-1.375-3.07-3.071-3.07s-3.071 1.375-3.071 3.07c0 .736.27 1.402.701 1.931 1.645-.048 3.283-.121 4.916-.214.332-.49.525-1.081.525-1.717z"/><path d="m239.983 470.916c0-1.695-1.375-3.07-3.071-3.07s-3.071 1.375-3.071 3.07c0 1.696 1.375 3.071 3.071 3.071s3.071-1.375 3.071-3.071z"/><path d="m229.712 481.187c0-1.696-1.375-3.07-3.071-3.07s-3.071 1.375-3.071 3.07c0 .776.297 1.476.772 2.017h4.598c.475-.541.772-1.241.772-2.017z"/><path d="m209.916 481.187c0-1.696-1.375-3.07-3.071-3.07s-3.071 1.375-3.071 3.07c0 .776.297 1.476.772 2.017h4.598c.475-.541.772-1.241.772-2.017z"/></g><path d="m501.071 272.383c-10.703-16.313-28.54-22.884-51.585-19.003-13.273 2.236-24.515 7.289-28.93 9.464v-12.98c.068-.824.115-1.65.115-2.481 0-42.996-92.097-76.676-209.668-76.676-116.285 0-207.636 32.949-209.621 75.27 0 .012-.004.023-.004.035v.07c-.019.433-.043.865-.043 1.301 0 .435.025.868.043 1.3v52.836c0 72.446 41.556 135.327 101.995 165.915-2.068 3.592-3.268 7.744-3.268 12.178v7.094c0 13.525 11.003 24.528 24.528 24.528h178.708c13.524 0 24.528-11.003 24.528-24.528v-7.095c0-5.44-1.787-10.465-4.796-14.537 20.095-10.877 37.968-25.376 52.747-42.62 66.907-20.982 115.444-57.524 129.919-97.87 6.841-19.067 5.227-37.118-4.668-52.201zm-80.516 29.137v-5.003c5.002-2.755 29.95-15.27 42.231 1.635 5.346 7.358 6.591 16.485 3.602 26.396-6.412 21.261-29.894 41.901-63.595 56.31 11.382-24.072 17.762-50.97 17.762-79.338zm-209.554-122.791c109.304 0 201.646 31.44 201.646 68.654 0 37.215-92.343 68.655-201.646 68.655s-201.646-31.44-201.646-68.655c.001-37.215 92.343-68.654 201.646-68.654zm108.846 300.884v7.095c0 9.101-7.405 16.506-16.506 16.506h-178.708c-9.102 0-16.506-7.405-16.506-16.506v-7.094c0-3.193.926-6.166 2.505-8.694 23.136 10.464 48.784 16.294 75.764 16.294h49.139c28.734 0 55.958-6.609 80.244-18.39 2.52 2.896 4.068 6.657 4.068 10.789zm-84.312-.421h-49.139c-97.612 0-177.026-79.703-177.026-177.672v-32.649c24.824 32.218 104.538 55.189 201.632 55.189 97.004 0 176.658-22.929 201.561-55.099v32.559c-.001 97.969-79.415 177.672-177.028 177.672zm262.653-157.314c-6.3 17.559-20.318 35.157-40.54 50.892-19.438 15.125-44.403 28.219-72.763 38.223 4.479-6.138 8.59-12.56 12.304-19.234 40.523-15.324 69.23-39.53 76.88-64.895 3.741-12.404 2.084-23.963-4.792-33.428-12.64-17.398-35.105-12.542-48.721-6.001v-16.061c.631-.009 1.268-.148 1.861-.472.501-.274 50.396-26.968 71.948 5.881 8.459 12.895 9.781 28.488 3.823 45.095z" fill="#31373d"/><ellipse cx="211.001" cy="247.383" fill="#e9c278" rx="176.865" ry="52.1"/><path d="m211.001 303.494c-47.615 0-92.433-5.477-126.195-15.423-35.772-10.537-54.68-24.607-54.68-40.688s18.908-30.15 54.68-40.687c33.763-9.946 78.58-15.423 126.195-15.423s92.433 5.477 126.196 15.423c35.772 10.537 54.68 24.607 54.68 40.687 0 16.081-18.908 30.15-54.68 40.688-33.763 9.946-78.58 15.423-126.196 15.423zm0-104.199c-46.869 0-90.881 5.361-123.929 15.096-30.635 9.024-48.925 21.358-48.925 32.992 0 11.635 18.29 23.968 48.925 32.993 33.048 9.735 77.06 15.096 123.929 15.096s90.882-5.361 123.929-15.096c30.636-9.024 48.925-21.358 48.925-32.993s-18.29-23.968-48.925-32.992c-33.047-9.735-77.059-15.096-123.929-15.096z" fill="#31373d"/><path d="m322.445 264.01c-.366-2.185-2.439-3.66-4.619-3.292-.666.112-64.595 10.767-102.711 11.556v-13.655c25.648-.712 67.039-8.087 68.875-8.417 2.18-.391 3.631-2.475 3.24-4.656-.391-2.18-2.469-3.632-4.656-3.24-.443.079-42.354 7.547-67.459 8.286v-13.214c16.679-1.742 40.982-10.974 42.113-11.406 2.069-.791 3.105-3.11 2.314-5.179s-3.109-3.106-5.179-2.314c-.262.1-23.735 9.014-39.248 10.833v-10.579l8.541-6.914c1.721-1.394 1.987-3.919.593-5.641-1.393-1.721-3.919-1.988-5.641-.594l-6.699 5.423-7.13-5.54c-1.75-1.359-4.27-1.043-5.629.706s-1.043 4.27.706 5.629l7.236 5.623v12.031c-13.353-1.396-35.99-10.617-36.236-10.717-2.049-.843-4.392.141-5.232 2.191s.141 4.392 2.19 5.232c1.067.437 24.622 10.033 39.279 11.347v13.066c-24.449-.822-65.858-8.027-66.299-8.103-2.182-.383-4.26 1.077-4.642 3.259s1.077 4.26 3.26 4.642c1.828.32 42.733 7.436 67.682 8.228v13.684c-37.703-.697-101.671-11.344-102.335-11.454-2.18-.365-4.252 1.108-4.618 3.293s1.109 4.252 3.293 4.618c2.737.459 65.445 10.894 103.66 11.567v4.79c0 2.215 1.796 4.011 4.011 4.011s4.011-1.796 4.011-4.011v-4.8c38.609-.762 101.291-11.208 104.038-11.669 2.184-.367 3.658-2.435 3.291-4.62z" fill="#f9fbfc"/><g fill="#31373d"><path d="m213.286 150.572c-2.215 0-4.011-1.796-4.011-4.011 0-14.074 4.436-21.467 8.35-27.989 3.706-6.176 7.206-12.01 7.206-23.862 0-11.854-3.5-17.688-7.207-23.865-3.914-6.524-8.35-13.917-8.35-27.993 0-14.075 4.436-21.469 8.35-27.992 2.237-3.729 4.35-7.25 5.7-11.954.611-2.13 2.828-3.361 4.962-2.749 2.129.611 3.36 2.832 2.749 4.962-1.64 5.715-4.127 9.86-6.531 13.868-3.706 6.177-7.207 12.012-7.207 23.865 0 11.854 3.501 17.688 7.207 23.865 3.914 6.524 8.35 13.917 8.35 27.993 0 14.074-4.436 21.467-8.35 27.989-3.706 6.176-7.206 12.01-7.206 23.862 0 2.215-1.796 4.011-4.012 4.011z"/><path d="m293.181 150.572c-2.215 0-4.011-1.796-4.011-4.011 0-14.074 4.436-21.467 8.35-27.989 3.706-6.176 7.206-12.01 7.206-23.862 0-11.854-3.5-17.688-7.207-23.865-3.914-6.524-8.35-13.917-8.35-27.993 0-14.075 4.436-21.469 8.35-27.992 2.21-3.682 4.296-7.161 5.648-11.776.624-2.126 2.854-3.342 4.977-2.722 2.125.623 3.344 2.851 2.722 4.977-1.641 5.604-4.095 9.694-6.468 13.649-3.706 6.177-7.206 12.011-7.206 23.865s3.501 17.688 7.207 23.866c3.914 6.523 8.35 13.917 8.35 27.992 0 14.074-4.436 21.467-8.35 27.989-3.706 6.176-7.206 12.01-7.206 23.862-.001 2.214-1.797 4.01-4.012 4.01z"/><path d="m133.392 150.572c-2.215 0-4.011-1.796-4.011-4.011 0-14.074 4.436-21.467 8.35-27.989 3.706-6.176 7.206-12.01 7.206-23.862 0-11.854-3.5-17.688-7.207-23.865-3.914-6.524-8.35-13.917-8.35-27.993 0-14.075 4.436-21.468 8.35-27.992 2.235-3.725 4.346-7.244 5.696-11.94.611-2.128 2.835-3.361 4.963-2.747 2.129.612 3.359 2.834 2.747 4.963-1.64 5.707-4.124 9.847-6.527 13.851-3.706 6.177-7.206 12.012-7.206 23.865 0 11.854 3.501 17.688 7.207 23.865 3.914 6.524 8.35 13.917 8.35 27.993 0 14.074-4.436 21.467-8.35 27.989-3.706 6.176-7.206 12.01-7.206 23.862-.001 2.215-1.797 4.011-4.012 4.011z"/></g></g></svg>