<svg id="Capa_1" enable-background="new 0 0 510.348 510.348" height="512" viewBox="0 0 510.348 510.348" width="512" xmlns="http://www.w3.org/2000/svg"><g><path d="m117.741 376.285-110.342 110.341c-4.507 4.507-4.507 11.815 0 16.323s11.815 4.508 16.323 0l110.656-110.657c-5.539-5.342-11.073-10.691-16.637-16.007z" fill="#e9c278"/><path d="m502.949 7.399c-4.507-4.508-11.816-4.508-16.323 0l-23.462 23.461c5.336 5.545 10.783 10.984 16.136 16.511l23.649-23.65c4.507-4.506 4.507-11.814 0-16.322z" fill="#e9c278"/><ellipse cx="182.883" cy="328.231" fill="#eaa895" rx="81.11" ry="81.11" transform="matrix(.707 -.707 .707 .707 -178.529 225.454)"/><g fill="#f9fbfc"><path d="m257.48 299.798c-1.721 0-3.117 1.395-3.117 3.116 0 1.722 1.395 3.117 3.117 3.117 1.283 0 2.384-.777 2.861-1.885-.411-1.322-.845-2.634-1.321-3.925-.455-.262-.976-.423-1.54-.423z"/><path d="m257.48 319.89c-1.721 0-3.117 1.395-3.117 3.116 0 1.722 1.395 3.117 3.117 3.117 1.721 0 3.116-1.395 3.116-3.117.001-1.721-1.395-3.116-3.116-3.116z"/><path d="m257.48 346.214c1.721 0 3.116-1.395 3.116-3.117 0-1.721-1.395-3.116-3.116-3.116s-3.117 1.395-3.117 3.116c.001 1.722 1.396 3.117 3.117 3.117z"/><path d="m237.389 279.707c-1.721 0-3.117 1.395-3.117 3.116 0 1.722 1.395 3.117 3.117 3.117 1.721 0 3.116-1.395 3.116-3.117 0-1.721-1.395-3.116-3.116-3.116z"/><path d="m227.714 269.317c-1.721 0-3.117 1.395-3.117 3.116 0 1.722 1.395 3.117 3.117 3.117 1.721 0 3.116-1.395 3.116-3.117.001-1.721-1.394-3.116-3.116-3.116z"/><path d="m247.813 289.374c-1.721 0-3.117 1.395-3.117 3.117 0 1.721 1.395 3.117 3.117 3.117 1.721 0 3.116-1.396 3.116-3.117 0-1.722-1.395-3.117-3.116-3.117z"/><path d="m237.389 299.798c-1.721 0-3.117 1.395-3.117 3.116 0 1.722 1.395 3.117 3.117 3.117 1.721 0 3.116-1.395 3.116-3.117 0-1.721-1.395-3.116-3.116-3.116z"/><path d="m227.714 309.473c-1.721 0-3.117 1.395-3.117 3.116 0 1.722 1.395 3.117 3.117 3.117 1.721 0 3.116-1.395 3.116-3.117.001-1.721-1.394-3.116-3.116-3.116z"/><path d="m247.813 309.465c-1.721 0-3.117 1.395-3.117 3.117 0 1.721 1.395 3.117 3.117 3.117 1.721 0 3.116-1.396 3.116-3.117s-1.395-3.117-3.116-3.117z"/><path d="m237.389 319.89c-1.721 0-3.117 1.395-3.117 3.116 0 1.722 1.395 3.117 3.117 3.117 1.721 0 3.116-1.395 3.116-3.117 0-1.721-1.395-3.116-3.116-3.116z"/><path d="m247.813 329.557c-1.721 0-3.117 1.395-3.117 3.117 0 1.721 1.395 3.117 3.117 3.117 1.721 0 3.116-1.396 3.116-3.117 0-1.722-1.395-3.117-3.116-3.117z"/><path d="m237.389 339.982c-1.721 0-3.117 1.395-3.117 3.116 0 1.722 1.395 3.117 3.117 3.117 1.721 0 3.116-1.395 3.116-3.117s-1.395-3.116-3.116-3.116z"/><path d="m247.813 349.649c-1.721 0-3.117 1.395-3.117 3.117 0 1.721 1.395 3.117 3.117 3.117 1.721 0 3.116-1.396 3.116-3.117 0-1.722-1.395-3.117-3.116-3.117z"/><path d="m237.389 360.073c-1.721 0-3.117 1.395-3.117 3.116 0 1.722 1.395 3.117 3.117 3.117 1.721 0 3.116-1.395 3.116-3.117 0-1.721-1.395-3.116-3.116-3.116z"/><path d="m247.813 369.74c-1.721 0-3.117 1.395-3.117 3.117 0 1.721 1.395 3.117 3.117 3.117.236 0 .463-.031.684-.081.826-1.135 1.621-2.294 2.388-3.473-.214-1.512-1.501-2.68-3.072-2.68z"/><path d="m237.389 380.165c-1.721 0-3.117 1.395-3.117 3.116 0 1.722 1.395 3.117 3.117 3.117 1.721 0 3.116-1.395 3.116-3.117 0-1.721-1.395-3.116-3.116-3.116z"/><path d="m227.721 329.557c-1.721 0-3.117 1.395-3.117 3.117 0 1.721 1.395 3.117 3.117 3.117s3.117-1.396 3.117-3.117c-.001-1.722-1.396-3.117-3.117-3.117z"/><path d="m217.297 339.982c-1.721 0-3.117 1.395-3.117 3.116 0 1.722 1.395 3.117 3.117 3.117 1.721 0 3.116-1.395 3.116-3.117s-1.395-3.116-3.116-3.116z"/><path d="m227.721 349.649c-1.721 0-3.117 1.395-3.117 3.117 0 1.721 1.395 3.117 3.117 3.117s3.117-1.396 3.117-3.117c-.001-1.722-1.396-3.117-3.117-3.117z"/><path d="m217.297 360.073c-1.721 0-3.117 1.395-3.117 3.116 0 1.722 1.395 3.117 3.117 3.117 1.721 0 3.116-1.395 3.116-3.117 0-1.721-1.395-3.116-3.116-3.116z"/><path d="m227.721 369.74c-1.721 0-3.117 1.395-3.117 3.117 0 1.721 1.395 3.117 3.117 3.117s3.117-1.396 3.117-3.117c-.001-1.722-1.396-3.117-3.117-3.117z"/><path d="m217.297 380.165c-1.721 0-3.117 1.395-3.117 3.116 0 1.722 1.395 3.117 3.117 3.117 1.721 0 3.116-1.395 3.116-3.117 0-1.721-1.395-3.116-3.116-3.116z"/><path d="m227.721 389.832c-1.721 0-3.117 1.395-3.117 3.117 0 1.607 1.221 2.914 2.782 3.082 1.135-.746 2.251-1.519 3.346-2.32.062-.245.105-.497.105-.762 0-1.722-1.395-3.117-3.116-3.117z"/><path d="m207.629 349.649c-1.721 0-3.117 1.395-3.117 3.117 0 1.721 1.395 3.117 3.117 3.117s3.117-1.396 3.117-3.117c0-1.722-1.396-3.117-3.117-3.117z"/><path d="m197.205 360.073c-1.721 0-3.117 1.395-3.117 3.116 0 1.722 1.395 3.117 3.117 3.117 1.721 0 3.116-1.395 3.116-3.117.001-1.721-1.394-3.116-3.116-3.116z"/><path d="m207.629 369.74c-1.721 0-3.117 1.395-3.117 3.117 0 1.721 1.395 3.117 3.117 3.117s3.117-1.396 3.117-3.117c0-1.722-1.396-3.117-3.117-3.117z"/><path d="m197.205 380.165c-1.721 0-3.117 1.395-3.117 3.116 0 1.722 1.395 3.117 3.117 3.117 1.721 0 3.116-1.395 3.116-3.117.001-1.721-1.394-3.116-3.116-3.116z"/><path d="m207.629 389.832c-1.721 0-3.117 1.395-3.117 3.117 0 1.721 1.395 3.117 3.117 3.117s3.117-1.396 3.117-3.117c0-1.722-1.396-3.117-3.117-3.117z"/><path d="m197.205 400.256c-1.721 0-3.117 1.395-3.117 3.116 0 1.722 1.395 3.117 3.117 3.117 1.721 0 3.116-1.395 3.116-3.117.001-1.721-1.394-3.116-3.116-3.116z"/><path d="m184.421 372.857c0 1.721 1.395 3.117 3.117 3.117 1.721 0 3.117-1.396 3.117-3.117 0-1.722-1.395-3.117-3.117-3.117-1.721 0-3.117 1.395-3.117 3.117z"/><path d="m177.114 380.165c-1.721 0-3.117 1.395-3.117 3.116 0 1.722 1.395 3.117 3.117 3.117 1.721 0 3.116-1.395 3.116-3.117 0-1.721-1.395-3.116-3.116-3.116z"/><path d="m167.44 369.775c-1.721 0-3.117 1.395-3.117 3.116 0 1.722 1.395 3.117 3.117 3.117 1.721 0 3.116-1.395 3.116-3.117 0-1.721-1.395-3.116-3.116-3.116z"/><path d="m187.538 396.065c1.721 0 3.117-1.396 3.117-3.117 0-1.722-1.395-3.117-3.117-3.117-1.721 0-3.117 1.395-3.117 3.117 0 1.721 1.396 3.117 3.117 3.117z"/><path d="m180.23 403.372c0-1.721-1.395-3.116-3.116-3.116s-3.117 1.395-3.117 3.116c0 1.722 1.395 3.117 3.117 3.117 1.721 0 3.116-1.395 3.116-3.117z"/><path d="m153.906 383.28c0 1.722 1.395 3.117 3.117 3.117 1.721 0 3.117-1.395 3.117-3.117 0-1.721-1.395-3.116-3.117-3.116-1.722.001-3.117 1.396-3.117 3.116z"/><path d="m170.563 392.949c0-1.722-1.395-3.117-3.117-3.117-1.721 0-3.117 1.395-3.117 3.117 0 1.721 1.395 3.117 3.117 3.117 1.721-.001 3.117-1.397 3.117-3.117z"/><path d="m160.139 403.372c0-1.721-1.395-3.116-3.117-3.116-1.721 0-3.117 1.395-3.117 3.116 0 .224.025.44.07.651 1.652.631 3.331 1.209 5.033 1.732.686-.571 1.131-1.421 1.131-2.383z"/><path d="m133.814 383.28c0 1.722 1.395 3.117 3.117 3.117 1.721 0 3.116-1.395 3.116-3.117 0-1.721-1.395-3.116-3.116-3.116-1.721.001-3.117 1.396-3.117 3.116z"/><path d="m124.14 372.891c0 1.722 1.395 3.117 3.117 3.117 1.721 0 3.116-1.395 3.116-3.117 0-1.721-1.395-3.116-3.116-3.116-1.722 0-3.117 1.395-3.117 3.116z"/><path d="m147.355 389.832c-1.721 0-3.117 1.395-3.117 3.117 0 1.721 1.395 3.117 3.117 3.117 1.721 0 3.117-1.396 3.117-3.117-.001-1.722-1.396-3.117-3.117-3.117z"/></g><circle cx="298.54" cy="212.574" fill="#e9c278" r="81.11"/><g fill="#f9fbfc"><path d="m374.913 202.456c0 1.722 1.395 3.117 3.117 3.117.46 0 .892-.105 1.285-.283-.177-1.987-.425-3.953-.743-5.895-.177-.03-.357-.054-.542-.054-1.721-.001-3.117 1.394-3.117 3.115z"/><path d="m378.03 219.432c-1.721 0-3.117 1.395-3.117 3.116 0 1.722 1.395 3.117 3.117 3.117.193 0 .381-.024.565-.057.314-1.94.552-3.906.725-5.889-.395-.181-.829-.287-1.29-.287z"/><path d="m357.938 159.157c-1.721 0-3.116 1.395-3.116 3.116 0 1.722 1.395 3.117 3.116 3.117s3.117-1.395 3.117-3.117c0-1.721-1.396-3.116-3.117-3.116z"/><path d="m365.246 171.941c0 1.721 1.395 3.117 3.117 3.117.67 0 1.287-.217 1.795-.576-.974-1.827-2.023-3.606-3.13-5.347-1.051.502-1.782 1.565-1.782 2.806z"/><path d="m357.938 179.249c-1.721 0-3.116 1.395-3.116 3.116 0 1.722 1.395 3.117 3.116 3.117s3.117-1.395 3.117-3.117c0-1.721-1.396-3.116-3.117-3.116z"/><path d="m368.362 188.916c-1.721 0-3.117 1.395-3.117 3.117 0 1.721 1.395 3.117 3.117 3.117 1.721 0 3.116-1.396 3.116-3.117.001-1.722-1.395-3.117-3.116-3.117z"/><path d="m357.938 199.34c-1.721 0-3.116 1.395-3.116 3.116 0 1.722 1.395 3.117 3.116 3.117s3.117-1.395 3.117-3.117c0-1.721-1.396-3.116-3.117-3.116z"/><path d="m368.362 209.008c-1.721 0-3.117 1.395-3.117 3.117 0 1.721 1.395 3.117 3.117 3.117 1.721 0 3.116-1.396 3.116-3.117.001-1.722-1.395-3.117-3.116-3.117z"/><path d="m357.938 219.432c-1.721 0-3.116 1.395-3.116 3.116 0 1.722 1.395 3.117 3.116 3.117s3.117-1.395 3.117-3.117c0-1.721-1.396-3.116-3.117-3.116z"/><path d="m368.362 229.099c-1.721 0-3.117 1.395-3.117 3.117 0 1.721 1.395 3.117 3.117 3.117 1.721 0 3.116-1.396 3.116-3.117.001-1.722-1.395-3.117-3.116-3.117z"/><path d="m357.938 239.524c-1.721 0-3.116 1.395-3.116 3.116 0 1.722 1.395 3.117 3.116 3.117s3.117-1.395 3.117-3.117c0-1.721-1.396-3.116-3.117-3.116z"/><path d="m365.246 252.307c0 1.416.951 2.598 2.244 2.978 1.061-1.709 2.054-3.463 2.988-5.254-.556-.518-1.296-.841-2.116-.841-1.721.001-3.116 1.396-3.116 3.117z"/><path d="m357.938 259.615c-1.721 0-3.116 1.395-3.116 3.116 0 1.722 1.395 3.117 3.116 3.117s3.117-1.395 3.117-3.117c0-1.721-1.396-3.116-3.117-3.116z"/><path d="m337.914 145.291c1.287-.029 2.377-.833 2.825-1.966-1.668-1.018-3.372-1.983-5.116-2.881.817 1.585 1.578 3.204 2.291 4.847z"/><path d="m345.154 151.85c0 1.721 1.395 3.117 3.116 3.117s3.117-1.396 3.117-3.117c0-.317-.061-.616-.149-.904-.874-.747-1.768-1.473-2.674-2.184-.098-.009-.193-.029-.294-.029-1.721 0-3.116 1.395-3.116 3.117z"/><path d="m348.271 168.824c-1.721 0-3.116 1.395-3.116 3.117 0 1.721 1.395 3.117 3.116 3.117s3.117-1.396 3.117-3.117c-.001-1.722-1.396-3.117-3.117-3.117z"/><path d="m348.271 188.916c-1.721 0-3.116 1.395-3.116 3.117 0 1.721 1.395 3.117 3.116 3.117s3.117-1.396 3.117-3.117c-.001-1.722-1.396-3.117-3.117-3.117z"/><path d="m348.271 209.008c-1.721 0-3.116 1.395-3.116 3.117 0 1.721 1.395 3.117 3.116 3.117s3.117-1.396 3.117-3.117c-.001-1.722-1.396-3.117-3.117-3.117z"/><path d="m337.847 219.432c-1.721 0-3.117 1.395-3.117 3.116 0 1.722 1.395 3.117 3.117 3.117 1.721 0 3.116-1.395 3.116-3.117 0-1.721-1.395-3.116-3.116-3.116z"/><path d="m348.271 229.099c-1.721 0-3.116 1.395-3.116 3.117 0 1.721 1.395 3.117 3.116 3.117s3.117-1.396 3.117-3.117c-.001-1.722-1.396-3.117-3.117-3.117z"/><path d="m337.847 239.524c-1.721 0-3.117 1.395-3.117 3.116 0 1.722 1.395 3.117 3.117 3.117 1.721 0 3.116-1.395 3.116-3.117 0-1.721-1.395-3.116-3.116-3.116z"/><path d="m348.271 249.191c-1.721 0-3.116 1.395-3.116 3.117 0 1.721 1.395 3.117 3.116 3.117s3.117-1.396 3.117-3.117c-.001-1.722-1.396-3.117-3.117-3.117z"/><path d="m337.847 259.615c-1.721 0-3.117 1.395-3.117 3.116 0 1.722 1.395 3.117 3.117 3.117 1.721 0 3.116-1.395 3.116-3.117 0-1.721-1.395-3.116-3.116-3.116z"/><path d="m348.271 269.282c-1.721 0-3.116 1.395-3.116 3.117 0 1.721 1.395 3.117 3.116 3.117s3.117-1.396 3.117-3.117c-.001-1.722-1.396-3.117-3.117-3.117z"/><path d="m337.847 279.707c-1.721 0-3.117 1.395-3.117 3.116 0 .751.277 1.431.719 1.969 1.816-.929 3.602-1.909 5.335-2.969-.418-1.228-1.568-2.116-2.937-2.116z"/><path d="m328.179 229.099c-1.721 0-3.117 1.395-3.117 3.117 0 1.721 1.395 3.117 3.117 3.117 1.721 0 3.116-1.396 3.116-3.117 0-1.722-1.395-3.117-3.116-3.117z"/><path d="m317.755 239.524c-1.721 0-3.116 1.395-3.116 3.116 0 1.722 1.395 3.117 3.116 3.117s3.117-1.395 3.117-3.117c-.001-1.721-1.396-3.116-3.117-3.116z"/><path d="m328.179 249.191c-1.721 0-3.117 1.395-3.117 3.117 0 1.721 1.395 3.117 3.117 3.117 1.721 0 3.116-1.396 3.116-3.117 0-1.722-1.395-3.117-3.116-3.117z"/><path d="m317.755 259.615c-1.721 0-3.116 1.395-3.116 3.116 0 1.722 1.395 3.117 3.116 3.117s3.117-1.395 3.117-3.117c-.001-1.721-1.396-3.116-3.117-3.116z"/><path d="m328.179 269.282c-1.721 0-3.117 1.395-3.117 3.117 0 1.721 1.395 3.117 3.117 3.117 1.721 0 3.116-1.396 3.116-3.117 0-1.722-1.395-3.117-3.116-3.117z"/><path d="m317.755 279.707c-1.721 0-3.116 1.395-3.116 3.116 0 1.722 1.395 3.117 3.116 3.117s3.117-1.395 3.117-3.117c-.001-1.721-1.396-3.116-3.117-3.116z"/><path d="m308.087 249.191c-1.721 0-3.116 1.395-3.116 3.117 0 1.721 1.395 3.117 3.116 3.117s3.117-1.396 3.117-3.117c0-1.722-1.395-3.117-3.117-3.117z"/><path d="m297.663 259.615c-1.721 0-3.117 1.395-3.117 3.116 0 1.722 1.395 3.117 3.117 3.117 1.721 0 3.116-1.395 3.116-3.117.001-1.721-1.394-3.116-3.116-3.116z"/><path d="m308.087 269.282c-1.721 0-3.116 1.395-3.116 3.117 0 1.721 1.395 3.117 3.116 3.117s3.117-1.396 3.117-3.117c0-1.722-1.395-3.117-3.117-3.117z"/><path d="m297.663 279.707c-1.721 0-3.117 1.395-3.117 3.116 0 1.722 1.395 3.117 3.117 3.117 1.721 0 3.116-1.395 3.116-3.117.001-1.721-1.394-3.116-3.116-3.116z"/><path d="m311.204 292.491c0-1.722-1.395-3.117-3.117-3.117-1.721 0-3.116 1.395-3.116 3.117 0 .317.061.616.149.905 2.042-.164 4.067-.385 6.063-.698.005-.07.021-.137.021-.207z"/><path d="m277.572 259.615c-1.721 0-3.116 1.395-3.116 3.116 0 1.722 1.395 3.117 3.116 3.117s3.117-1.395 3.117-3.117c-.001-1.721-1.396-3.116-3.117-3.116z"/><path d="m287.996 269.282c-1.721 0-3.117 1.395-3.117 3.117 0 1.721 1.395 3.117 3.117 3.117 1.721 0 3.117-1.396 3.117-3.117-.001-1.722-1.396-3.117-3.117-3.117z"/><path d="m277.572 279.707c-1.721 0-3.116 1.395-3.116 3.116 0 1.722 1.395 3.117 3.116 3.117s3.117-1.395 3.117-3.117c-.001-1.721-1.396-3.116-3.117-3.116z"/><path d="m291.112 292.491c0-1.722-1.395-3.117-3.117-3.117-1.721 0-3.117 1.395-3.117 3.117 0 .013.004.025.004.037 2.01.341 4.045.605 6.102.796.076-.267.128-.543.128-.833z"/><path d="m254.364 262.731c0 1.722 1.395 3.117 3.117 3.117 1.721 0 3.116-1.395 3.116-3.117 0-1.721-1.395-3.116-3.116-3.116-1.722 0-3.117 1.395-3.117 3.116z"/><path d="m267.904 275.516c1.721 0 3.117-1.396 3.117-3.117 0-1.722-1.395-3.117-3.117-3.117-1.721 0-3.116 1.395-3.116 3.117 0 1.721 1.395 3.117 3.116 3.117z"/><path d="m257.48 279.707c-1.029 0-1.934.504-2.502 1.273 1.735 1.108 3.51 2.157 5.331 3.133.18-.394.287-.829.287-1.291.001-1.72-1.395-3.115-3.116-3.115z"/><path d="m237.389 259.615c-1.503 0-2.756 1.064-3.051 2.479.989 1.28 2.01 2.533 3.072 3.751 1.711-.012 3.095-1.401 3.095-3.115 0-1.72-1.395-3.115-3.116-3.115z"/><path d="m250.929 272.399c0-1.722-1.395-3.117-3.116-3.117s-3.117 1.395-3.117 3.117c0 .337.067.655.166.96.816.722 1.65 1.422 2.495 2.111.15.022.299.046.455.046 1.722 0 3.117-1.396 3.117-3.117z"/><path d="m229.391 254.931c.867-.553 1.446-1.519 1.446-2.623 0-.193-.023-.381-.057-.564-1.48-.653-2.938-1.349-4.37-2.087.928 1.799 1.926 3.556 2.981 5.274z"/></g><ellipse cx="414.949" cy="96.165" fill="#f9fbfc" rx="81.11" ry="81.11" transform="matrix(.23 -.973 .973 .23 226.02 477.919)"/><g fill="#eaa895"><path d="m495.463 101.998c0 .448.099.872.269 1.258.084-.971.172-1.943.222-2.924-.307.483-.491 1.052-.491 1.666z"/><path d="m477.621 44.703c-.718-.873-1.455-1.729-2.209-2.571.163 1.234 1.04 2.23 2.209 2.571z"/><path d="m478.488 58.699c-1.721 0-3.116 1.395-3.116 3.116 0 1.722 1.395 3.117 3.116 3.117s3.117-1.395 3.117-3.117c-.001-1.721-1.396-3.116-3.117-3.116z"/><path d="m488.912 68.366c-1.721 0-3.117 1.395-3.117 3.117 0 1.721 1.395 3.117 3.117 3.117 1.721 0 3.116-1.396 3.116-3.117 0-1.722-1.395-3.117-3.116-3.117z"/><path d="m478.488 78.791c-1.721 0-3.116 1.395-3.116 3.116 0 1.722 1.395 3.117 3.116 3.117s3.117-1.395 3.117-3.117c-.001-1.721-1.396-3.116-3.117-3.116z"/><path d="m488.912 88.458c-1.721 0-3.117 1.395-3.117 3.117 0 1.721 1.395 3.117 3.117 3.117 1.721 0 3.116-1.396 3.116-3.117 0-1.722-1.395-3.117-3.116-3.117z"/><path d="m478.488 98.882c-1.721 0-3.116 1.395-3.116 3.116 0 1.722 1.395 3.117 3.116 3.117s3.117-1.395 3.117-3.117c-.001-1.72-1.396-3.116-3.117-3.116z"/><circle cx="488.912" cy="111.666" r="3.117"/><path d="m478.488 118.974c-1.721 0-3.116 1.395-3.116 3.116 0 1.722 1.395 3.117 3.116 3.117s3.117-1.395 3.117-3.117c-.001-1.721-1.396-3.116-3.117-3.116z"/><path d="m485.795 131.758c0 .862.351 1.642.916 2.206.911-1.727 1.761-3.49 2.549-5.288-.116-.013-.229-.035-.349-.035-1.72 0-3.116 1.395-3.116 3.117z"/><path d="m478.488 139.066c-1.721 0-3.116 1.395-3.116 3.116 0 1.722 1.395 3.117 3.116 3.117.412 0 .804-.084 1.164-.23.664-.877 1.303-1.773 1.931-2.676.005-.072.021-.138.021-.211 0-1.721-1.395-3.116-3.116-3.116z"/><path d="m468.82 48.275c-1.721 0-3.116 1.395-3.116 3.117 0 1.721 1.395 3.117 3.116 3.117s3.117-1.396 3.117-3.117c0-1.722-1.396-3.117-3.117-3.117z"/><path d="m458.373 38.589c-1.721 0-3.116 1.395-3.116 3.117 0 1.721 1.395 3.117 3.116 3.117s3.117-1.396 3.117-3.117c0-1.722-1.396-3.117-3.117-3.117z"/><path d="m468.82 68.366c-1.721 0-3.116 1.395-3.116 3.117 0 1.721 1.395 3.117 3.116 3.117s3.117-1.396 3.117-3.117c0-1.722-1.396-3.117-3.117-3.117z"/><path d="m458.373 78.813c-1.721 0-3.116 1.395-3.116 3.117 0 1.721 1.395 3.117 3.116 3.117s3.117-1.396 3.117-3.117c0-1.722-1.396-3.117-3.117-3.117z"/><path d="m468.82 88.458c-1.721 0-3.116 1.395-3.116 3.117 0 1.721 1.395 3.117 3.116 3.117s3.117-1.396 3.117-3.117c0-1.722-1.396-3.117-3.117-3.117z"/><path d="m458.396 98.882c-1.721 0-3.117 1.395-3.117 3.116 0 1.722 1.395 3.117 3.117 3.117 1.721 0 3.116-1.395 3.116-3.117.001-1.72-1.395-3.116-3.116-3.116z"/><circle cx="468.82" cy="111.666" r="3.117"/><path d="m458.396 118.974c-1.721 0-3.117 1.395-3.117 3.116 0 1.722 1.395 3.117 3.117 3.117 1.721 0 3.116-1.395 3.116-3.117.001-1.721-1.395-3.116-3.116-3.116z"/><path d="m468.82 128.641c-1.721 0-3.116 1.395-3.116 3.117 0 1.721 1.395 3.117 3.116 3.117s3.117-1.396 3.117-3.117c0-1.722-1.396-3.117-3.117-3.117z"/><path d="m458.396 139.066c-1.721 0-3.117 1.395-3.117 3.116 0 1.722 1.395 3.117 3.117 3.117 1.721 0 3.116-1.395 3.116-3.117.001-1.721-1.395-3.116-3.116-3.116z"/><path d="m468.82 148.733c-1.721 0-3.116 1.395-3.116 3.117 0 1.721 1.395 3.117 3.116 3.117s3.117-1.396 3.117-3.117c0-1.722-1.396-3.117-3.117-3.117z"/><path d="m458.396 159.157c-1.721 0-3.117 1.395-3.117 3.116 0 1.398.926 2.566 2.193 2.962 1.366-.843 2.698-1.732 4.009-2.653.01-.103.031-.203.031-.309.001-1.721-1.395-3.116-3.116-3.116z"/><circle cx="448.728" cy="111.666" r="3.117"/><path d="m438.305 118.974c-1.721 0-3.117 1.395-3.117 3.116 0 1.722 1.395 3.117 3.117 3.117 1.721 0 3.117-1.395 3.117-3.117-.001-1.721-1.396-3.116-3.117-3.116z"/><path d="m448.728 128.641c-1.721 0-3.117 1.395-3.117 3.117 0 1.721 1.395 3.117 3.117 3.117 1.721 0 3.116-1.396 3.116-3.117.001-1.722-1.394-3.117-3.116-3.117z"/><path d="m438.305 139.066c-1.721 0-3.117 1.395-3.117 3.116 0 1.722 1.395 3.117 3.117 3.117 1.721 0 3.117-1.395 3.117-3.117-.001-1.721-1.396-3.116-3.117-3.116z"/><path d="m448.728 148.733c-1.721 0-3.117 1.395-3.117 3.117 0 1.721 1.395 3.117 3.117 3.117 1.721 0 3.116-1.396 3.116-3.117.001-1.722-1.394-3.117-3.116-3.117z"/><path d="m438.305 159.157c-1.721 0-3.117 1.395-3.117 3.116 0 1.722 1.395 3.117 3.117 3.117 1.721 0 3.117-1.395 3.117-3.117-.001-1.721-1.396-3.116-3.117-3.116z"/><path d="m448.728 168.824c-1.473 0-2.701 1.026-3.026 2.4 1.528-.627 3.039-1.286 4.519-2.002-.444-.246-.948-.398-1.493-.398z"/><path d="m428.637 128.641c-1.721 0-3.116 1.395-3.116 3.117 0 1.721 1.395 3.117 3.116 3.117s3.117-1.396 3.117-3.117c-.001-1.722-1.396-3.117-3.117-3.117z"/><path d="m415.096 142.181c0 1.722 1.395 3.117 3.117 3.117 1.721 0 3.116-1.395 3.116-3.117 0-1.721-1.395-3.116-3.116-3.116-1.721.001-3.117 1.396-3.117 3.116z"/><path d="m428.637 148.733c-1.721 0-3.116 1.395-3.116 3.117 0 1.721 1.395 3.117 3.116 3.117s3.117-1.396 3.117-3.117c-.001-1.722-1.396-3.117-3.117-3.117z"/><path d="m418.213 165.39c1.721 0 3.116-1.395 3.116-3.117 0-1.721-1.395-3.116-3.116-3.116s-3.117 1.395-3.117 3.116c0 1.722 1.396 3.117 3.117 3.117z"/><path d="m428.637 168.824c-1.721 0-3.116 1.395-3.116 3.117 0 1.721 1.395 3.117 3.116 3.117s3.117-1.396 3.117-3.117c-.001-1.722-1.396-3.117-3.117-3.117z"/><path d="m408.545 148.733c-1.721 0-3.116 1.395-3.116 3.117 0 1.721 1.395 3.117 3.116 3.117s3.116-1.396 3.116-3.117c.001-1.722-1.394-3.117-3.116-3.117z"/><path d="m398.149 139.097c-1.721 0-3.116 1.395-3.116 3.117 0 1.721 1.395 3.117 3.116 3.117s3.117-1.396 3.117-3.117c0-1.722-1.396-3.117-3.117-3.117z"/><path d="m401.238 162.273c0-1.721-1.395-3.116-3.117-3.116-1.721 0-3.116 1.395-3.116 3.116 0 1.722 1.395 3.117 3.116 3.117 1.722 0 3.117-1.395 3.117-3.117z"/><path d="m411.662 171.941c0-1.722-1.395-3.117-3.116-3.117s-3.116 1.395-3.116 3.117c0 1.721 1.395 3.117 3.116 3.117s3.116-1.396 3.116-3.117z"/><path d="m385.337 151.85c0 1.721 1.395 3.117 3.116 3.117s3.117-1.396 3.117-3.117c0-1.722-1.395-3.117-3.117-3.117-1.72 0-3.116 1.395-3.116 3.117z"/><path d="m378.03 159.157c-1.721 0-3.117 1.395-3.117 3.116 0 1.722 1.395 3.117 3.117 3.117s3.116-1.395 3.116-3.117c0-1.721-1.395-3.116-3.116-3.116z"/><path d="m391.57 171.941c0-1.722-1.395-3.117-3.117-3.117-1.636 0-2.963 1.266-3.091 2.869 1.86.73 3.754 1.391 5.678 1.985.335-.496.53-1.093.53-1.737z"/><path d="m365.246 151.85c0 1.721 1.395 3.117 3.117 3.117 1.721 0 3.116-1.396 3.116-3.117 0-1.722-1.395-3.117-3.116-3.117-1.722 0-3.117 1.395-3.117 3.117z"/><path d="m354.799 142.163c0 1.721 1.395 3.117 3.117 3.117 1.721 0 3.116-1.396 3.116-3.117 0-1.722-1.395-3.117-3.116-3.117-1.722.001-3.117 1.396-3.117 3.117z"/><path d="m374.881 142.214c0 1.721 1.395 3.117 3.117 3.117 1.721 0 3.116-1.396 3.116-3.117 0-1.722-1.395-3.117-3.116-3.117s-3.117 1.395-3.117 3.117z"/></g><path d="m510.348 15.56c0-4.156-1.619-8.063-4.557-11.002-2.94-2.939-6.847-4.558-11.004-4.558-4.156 0-8.064 1.619-11.003 4.558l-21.134 21.135c-13.616-9.246-30.038-14.657-47.701-14.657-46.94 0-85.129 38.189-85.129 85.128 0 15.663 4.271 30.34 11.681 42.961-12.621-7.411-27.298-11.681-42.961-11.681-46.94 0-85.129 38.189-85.129 85.128 0 14.935 3.879 28.976 10.662 41.191-12.215-6.784-26.256-10.662-41.191-10.662-46.94 0-85.128 38.189-85.128 85.128 0 17.663 5.41 34.085 14.657 47.702l-107.853 107.855c-2.939 2.938-4.558 6.845-4.558 11.002s1.619 8.064 4.557 11.002c2.939 2.939 6.847 4.558 11.003 4.558s8.064-1.619 11.003-4.558l107.724-107.723c13.791 9.626 30.54 15.293 48.596 15.293 46.94 0 85.129-38.189 85.129-85.129 0-14.935-3.879-28.976-10.662-41.191 12.215 6.784 26.256 10.662 41.191 10.662 46.94 0 85.129-38.189 85.129-85.128 0-15.663-4.27-30.339-11.681-42.96 12.621 7.411 27.297 11.681 42.961 11.681 46.94 0 85.129-38.189 85.129-85.129 0-18.056-5.668-34.805-15.294-48.597l21.006-21.006c2.938-2.939 4.557-6.846 4.557-11.003zm-489.468 484.548c-1.421 1.421-3.31 2.203-5.32 2.203s-3.899-.783-5.32-2.203c-1.421-1.422-2.203-3.31-2.203-5.32s.783-3.899 2.204-5.32l107.043-107.043c3.204 3.872 6.755 7.443 10.585 10.694zm239.095-171.877c0 42.509-34.583 77.093-77.092 77.093s-77.092-34.583-77.092-77.093c0-42.508 34.583-77.092 77.092-77.092 42.508 0 77.092 34.583 77.092 77.092zm115.657-115.657c0 42.508-34.583 77.092-77.092 77.092s-77.092-34.583-77.092-77.092c0-42.508 34.583-77.092 77.092-77.092s77.092 34.583 77.092 77.092zm39.317-39.316c-42.509 0-77.092-34.583-77.092-77.093 0-42.508 34.583-77.092 77.092-77.092s77.092 34.583 77.092 77.092-34.584 77.093-77.092 77.093zm85.158-152.378-20.27 20.27c-3.252-3.83-6.823-7.381-10.695-10.585l20.325-20.325c1.421-1.421 3.31-2.203 5.32-2.203s3.899.783 5.32 2.203c1.421 1.422 2.204 3.311 2.204 5.32 0 2.01-.782 3.899-2.204 5.32z" fill="#31373d"/></g></svg>