<svg id="Capa_1" enable-background="new 0 0 510.927 510.927" height="512" viewBox="0 0 510.927 510.927" width="512" xmlns="http://www.w3.org/2000/svg"><g><path d="m305.543 131.466v-101.831h-100.159v101.229c0 10.563-4.499 20.627-12.369 27.672l-53.625 47.997c-9.383 8.398-14.745 20.395-14.745 32.987v64.017 155.671c0 26.35 21.361 47.711 47.712 47.711h166.215c26.35 0 47.712-21.361 47.712-47.711v-155.67-63.887c0-12.668-5.427-24.729-14.908-33.132l-53.326-47.26c-7.955-7.048-12.507-17.166-12.507-27.793z" fill="#eaa895"/><g fill="#f9fbfc"><g><path d="m378.831 219.867c-1.694 0-3.068 1.374-3.068 3.068s1.374 3.068 3.068 3.068 3.068-1.374 3.068-3.068c0-1.695-1.373-3.068-3.068-3.068z"/><path d="m378.831 239.644c-1.694 0-3.068 1.374-3.068 3.068s1.374 3.067 3.068 3.067 3.068-1.373 3.068-3.067c0-1.695-1.373-3.068-3.068-3.068z"/><path d="m381.875 262.246c-.126-1.579-1.432-2.825-3.043-2.825s-2.918 1.246-3.043 2.825z"/><path d="m375.853 419.996c-.054.228-.09.462-.09.706 0 1.694 1.374 3.068 3.068 3.068s3.068-1.374 3.068-3.068c0-.244-.036-.478-.089-.706z"/><path d="m378.831 437.411c-1.694 0-3.068 1.374-3.068 3.068s1.374 3.068 3.068 3.068 3.068-1.374 3.068-3.068-1.373-3.068-3.068-3.068z"/><path d="m378.831 457.188c-1.694 0-3.068 1.374-3.068 3.068s1.374 3.068 3.068 3.068 3.068-1.373 3.068-3.068c0-1.694-1.373-3.068-3.068-3.068z"/><path d="m378.831 476.965c-1.694 0-3.068 1.374-3.068 3.068s1.374 3.068 3.068 3.068c.413 0 .806-.084 1.165-.232.654-1.142 1.263-2.311 1.823-3.509-.307-1.37-1.526-2.395-2.988-2.395z"/><path d="m359.055 200.09c-1.694 0-3.068 1.373-3.068 3.068 0 1.694 1.374 3.068 3.068 3.068s3.068-1.374 3.068-3.068c-.001-1.694-1.374-3.068-3.068-3.068z"/><path d="m369.315 209.606c-1.694 0-3.068 1.374-3.068 3.068s1.374 3.068 3.068 3.068 3.068-1.374 3.068-3.068-1.373-3.068-3.068-3.068z"/><path d="m359.055 219.867c-1.694 0-3.068 1.374-3.068 3.068s1.374 3.068 3.068 3.068 3.068-1.374 3.068-3.068c-.001-1.695-1.374-3.068-3.068-3.068z"/><path d="m369.315 229.383c-1.694 0-3.068 1.374-3.068 3.068s1.374 3.067 3.068 3.067 3.068-1.373 3.068-3.067-1.373-3.068-3.068-3.068z"/><path d="m359.055 239.644c-1.694 0-3.068 1.374-3.068 3.068s1.374 3.067 3.068 3.067 3.068-1.373 3.068-3.067c-.001-1.695-1.374-3.068-3.068-3.068z"/><path d="m369.315 249.16c-1.694 0-3.068 1.374-3.068 3.068 0 1.695 1.374 3.068 3.068 3.068s3.068-1.373 3.068-3.068-1.373-3.068-3.068-3.068z"/><path d="m362.098 262.246c-.126-1.579-1.432-2.825-3.043-2.825s-2.918 1.246-3.043 2.825z"/><path d="m356.077 419.996c-.054.228-.09.462-.09.706 0 1.694 1.374 3.068 3.068 3.068s3.068-1.374 3.068-3.068c0-.244-.036-.478-.09-.706z"/><path d="m369.315 427.151c-1.694 0-3.068 1.374-3.068 3.068s1.374 3.068 3.068 3.068 3.068-1.374 3.068-3.068c0-1.695-1.373-3.068-3.068-3.068z"/><path d="m359.055 437.411c-1.694 0-3.068 1.374-3.068 3.068s1.374 3.068 3.068 3.068 3.068-1.374 3.068-3.068c-.001-1.694-1.374-3.068-3.068-3.068z"/><path d="m369.315 446.927c-1.694 0-3.068 1.373-3.068 3.068s1.374 3.068 3.068 3.068 3.068-1.373 3.068-3.068c0-1.694-1.373-3.068-3.068-3.068z"/><path d="m359.055 457.188c-1.694 0-3.068 1.374-3.068 3.068s1.374 3.068 3.068 3.068 3.068-1.373 3.068-3.068c-.001-1.694-1.374-3.068-3.068-3.068z"/><path d="m369.315 466.704c-1.694 0-3.068 1.374-3.068 3.067 0 1.695 1.374 3.068 3.068 3.068s3.068-1.373 3.068-3.068c0-1.693-1.373-3.067-3.068-3.067z"/><path d="m359.055 476.965c-1.694 0-3.068 1.374-3.068 3.068s1.374 3.068 3.068 3.068 3.068-1.374 3.068-3.068-1.374-3.068-3.068-3.068z"/><path d="m369.315 486.481c-1.694 0-3.068 1.373-3.068 3.068 0 1.694 1.374 3.068 3.068 3.068s3.068-1.374 3.068-3.068c0-1.695-1.373-3.068-3.068-3.068z"/><path d="m359.055 496.742c-1.694 0-3.068 1.373-3.068 3.068 0 1.372.907 2.52 2.15 2.912 1.301-.586 2.572-1.226 3.808-1.922.107-.312.177-.641.177-.99 0-1.695-1.373-3.068-3.067-3.068z"/><path d="m339.278 180.314c-1.694 0-3.068 1.373-3.068 3.068 0 1.694 1.373 3.068 3.068 3.068 1.694 0 3.068-1.374 3.068-3.068 0-1.695-1.374-3.068-3.068-3.068z"/><path d="m349.538 189.829c-1.694 0-3.068 1.373-3.068 3.068 0 1.694 1.374 3.068 3.068 3.068s3.068-1.374 3.068-3.068-1.373-3.068-3.068-3.068z"/><path d="m339.278 200.09c-1.694 0-3.068 1.373-3.068 3.068 0 1.694 1.373 3.068 3.068 3.068 1.694 0 3.068-1.374 3.068-3.068s-1.374-3.068-3.068-3.068z"/><path d="m349.538 209.606c-1.694 0-3.068 1.374-3.068 3.068s1.374 3.068 3.068 3.068 3.068-1.374 3.068-3.068-1.373-3.068-3.068-3.068z"/><path d="m339.278 219.867c-1.694 0-3.068 1.374-3.068 3.068s1.373 3.068 3.068 3.068c1.694 0 3.068-1.374 3.068-3.068 0-1.695-1.374-3.068-3.068-3.068z"/><path d="m349.538 229.383c-1.694 0-3.068 1.374-3.068 3.068s1.374 3.067 3.068 3.067 3.068-1.373 3.068-3.067-1.373-3.068-3.068-3.068z"/><path d="m339.278 239.644c-1.694 0-3.068 1.374-3.068 3.068s1.373 3.067 3.068 3.067c1.694 0 3.068-1.373 3.068-3.067 0-1.695-1.374-3.068-3.068-3.068z"/><path d="m349.538 249.16c-1.694 0-3.068 1.374-3.068 3.068 0 1.695 1.374 3.068 3.068 3.068s3.068-1.373 3.068-3.068-1.373-3.068-3.068-3.068z"/><path d="m342.321 262.246c-.125-1.579-1.432-2.825-3.043-2.825s-2.918 1.246-3.043 2.825z"/><path d="m336.3 419.996c-.054.228-.09.462-.09.706 0 1.694 1.373 3.068 3.068 3.068 1.694 0 3.068-1.374 3.068-3.068 0-.244-.036-.478-.09-.706z"/><path d="m349.538 427.151c-1.694 0-3.068 1.374-3.068 3.068s1.374 3.068 3.068 3.068 3.068-1.374 3.068-3.068c0-1.695-1.373-3.068-3.068-3.068z"/><path d="m339.278 437.411c-1.694 0-3.068 1.374-3.068 3.068s1.373 3.068 3.068 3.068c1.694 0 3.068-1.374 3.068-3.068s-1.374-3.068-3.068-3.068z"/><path d="m349.538 446.927c-1.694 0-3.068 1.373-3.068 3.068s1.374 3.068 3.068 3.068 3.068-1.373 3.068-3.068c0-1.694-1.373-3.068-3.068-3.068z"/><path d="m339.278 457.188c-1.694 0-3.068 1.374-3.068 3.068s1.373 3.068 3.068 3.068c1.694 0 3.068-1.373 3.068-3.068 0-1.694-1.374-3.068-3.068-3.068z"/><path d="m349.538 466.704c-1.694 0-3.068 1.374-3.068 3.067 0 1.695 1.374 3.068 3.068 3.068s3.068-1.373 3.068-3.068c0-1.693-1.373-3.067-3.068-3.067z"/><path d="m339.278 476.965c-1.694 0-3.068 1.374-3.068 3.068s1.373 3.068 3.068 3.068c1.694 0 3.068-1.374 3.068-3.068s-1.374-3.068-3.068-3.068z"/><path d="m349.538 486.481c-1.694 0-3.068 1.373-3.068 3.068 0 1.694 1.374 3.068 3.068 3.068s3.068-1.374 3.068-3.068c0-1.695-1.373-3.068-3.068-3.068z"/><path d="m339.278 502.877c1.694 0 3.068-1.374 3.068-3.068s-1.374-3.068-3.068-3.068-3.068 1.373-3.068 3.068c0 1.694 1.374 3.068 3.068 3.068z"/><path d="m329.762 486.481c-1.694 0-3.068 1.373-3.068 3.068 0 1.694 1.374 3.068 3.068 3.068s3.068-1.374 3.068-3.068c-.001-1.695-1.374-3.068-3.068-3.068z"/><path d="m319.501 502.877c1.694 0 3.068-1.374 3.068-3.068s-1.373-3.068-3.068-3.068c-1.694 0-3.068 1.373-3.068 3.068 0 1.694 1.374 3.068 3.068 3.068z"/></g><path d="m204.559 27.926h100.034v72.666h-100.034z"/><path d="m124.343 261.025h261.41v159.488h-261.41z"/></g><g fill="#eaa895"><path d="m375.761 262.489c0 1.695 1.373 3.068 3.068 3.068 1.694 0 3.068-1.374 3.068-3.068 0-.533-.148-1.027-.387-1.464h-5.36c-.241.437-.389.931-.389 1.464z"/><path d="m378.829 279.198c-1.694 0-3.068 1.374-3.068 3.068s1.373 3.068 3.068 3.068c1.694 0 3.068-1.374 3.068-3.068-.001-1.694-1.374-3.068-3.068-3.068z"/><path d="m378.829 298.975c-1.694 0-3.068 1.374-3.068 3.068s1.373 3.068 3.068 3.068c1.694 0 3.068-1.373 3.068-3.068-.001-1.695-1.374-3.068-3.068-3.068z"/><path d="m378.829 318.752c-1.694 0-3.068 1.373-3.068 3.068s1.373 3.068 3.068 3.068c1.694 0 3.068-1.373 3.068-3.068-.001-1.695-1.374-3.068-3.068-3.068z"/><path d="m378.829 338.528c-1.694 0-3.068 1.373-3.068 3.068 0 1.694 1.373 3.068 3.068 3.068 1.694 0 3.068-1.374 3.068-3.068-.001-1.695-1.374-3.068-3.068-3.068z"/><path d="m378.829 358.305c-1.694 0-3.068 1.374-3.068 3.068s1.373 3.068 3.068 3.068c1.694 0 3.068-1.374 3.068-3.068-.001-1.695-1.374-3.068-3.068-3.068z"/><path d="m378.829 378.082c-1.694 0-3.068 1.374-3.068 3.068s1.373 3.068 3.068 3.068c1.694 0 3.068-1.374 3.068-3.068-.001-1.695-1.374-3.068-3.068-3.068z"/><path d="m378.829 397.858c-1.694 0-3.068 1.374-3.068 3.068s1.373 3.068 3.068 3.068c1.694 0 3.068-1.373 3.068-3.068-.001-1.694-1.374-3.068-3.068-3.068z"/><path d="m378.829 417.635c-1.629 0-2.949 1.274-3.048 2.878h6.097c-.101-1.604-1.42-2.878-3.049-2.878z"/><path d="m355.984 262.489c0 1.695 1.374 3.068 3.068 3.068s3.068-1.374 3.068-3.068c0-.533-.148-1.027-.387-1.464h-5.361c-.24.437-.388.931-.388 1.464z"/><path d="m369.313 268.937c-1.694 0-3.068 1.374-3.068 3.068s1.374 3.068 3.068 3.068 3.068-1.374 3.068-3.068c-.001-1.694-1.374-3.068-3.068-3.068z"/><path d="m359.052 279.198c-1.694 0-3.068 1.374-3.068 3.068s1.374 3.068 3.068 3.068 3.068-1.374 3.068-3.068-1.374-3.068-3.068-3.068z"/><path d="m369.313 288.714c-1.694 0-3.068 1.373-3.068 3.067s1.374 3.068 3.068 3.068 3.068-1.373 3.068-3.068c-.001-1.693-1.374-3.067-3.068-3.067z"/><path d="m359.052 298.975c-1.694 0-3.068 1.374-3.068 3.068s1.374 3.068 3.068 3.068 3.068-1.373 3.068-3.068-1.374-3.068-3.068-3.068z"/><circle cx="369.313" cy="311.559" r="3.068"/><path d="m359.052 318.752c-1.694 0-3.068 1.373-3.068 3.068s1.374 3.068 3.068 3.068 3.068-1.373 3.068-3.068-1.374-3.068-3.068-3.068z"/><path d="m369.313 328.268c-1.694 0-3.068 1.373-3.068 3.068 0 1.694 1.374 3.068 3.068 3.068s3.068-1.374 3.068-3.068c-.001-1.695-1.374-3.068-3.068-3.068z"/><path d="m359.052 338.528c-1.694 0-3.068 1.373-3.068 3.068 0 1.694 1.374 3.068 3.068 3.068s3.068-1.374 3.068-3.068c0-1.695-1.374-3.068-3.068-3.068z"/><path d="m369.313 348.044c-1.694 0-3.068 1.374-3.068 3.068s1.374 3.067 3.068 3.067 3.068-1.373 3.068-3.067c-.001-1.694-1.374-3.068-3.068-3.068z"/><path d="m359.052 358.305c-1.694 0-3.068 1.374-3.068 3.068s1.374 3.068 3.068 3.068 3.068-1.374 3.068-3.068c0-1.695-1.374-3.068-3.068-3.068z"/><path d="m369.313 367.821c-1.694 0-3.068 1.374-3.068 3.067 0 1.695 1.374 3.068 3.068 3.068s3.068-1.374 3.068-3.068c-.001-1.693-1.374-3.067-3.068-3.067z"/><path d="m359.052 378.082c-1.694 0-3.068 1.374-3.068 3.068s1.374 3.068 3.068 3.068 3.068-1.374 3.068-3.068c0-1.695-1.374-3.068-3.068-3.068z"/><circle cx="369.313" cy="390.665" r="3.068"/><path d="m359.052 397.858c-1.694 0-3.068 1.374-3.068 3.068s1.374 3.068 3.068 3.068 3.068-1.373 3.068-3.068c0-1.694-1.374-3.068-3.068-3.068z"/><circle cx="369.313" cy="410.442" r="3.068"/><path d="m359.052 417.635c-1.629 0-2.949 1.274-3.049 2.878h6.097c-.099-1.604-1.419-2.878-3.048-2.878z"/><path d="m336.207 262.489c0 1.695 1.374 3.068 3.068 3.068s3.068-1.374 3.068-3.068c0-.533-.148-1.027-.387-1.464h-5.36c-.24.437-.389.931-.389 1.464z"/><path d="m349.536 268.937c-1.694 0-3.068 1.374-3.068 3.068s1.374 3.068 3.068 3.068 3.068-1.374 3.068-3.068-1.374-3.068-3.068-3.068z"/><path d="m339.275 279.198c-1.694 0-3.068 1.374-3.068 3.068s1.374 3.068 3.068 3.068 3.068-1.374 3.068-3.068-1.374-3.068-3.068-3.068z"/><path d="m349.536 288.714c-1.694 0-3.068 1.373-3.068 3.067s1.374 3.068 3.068 3.068 3.068-1.373 3.068-3.068c0-1.693-1.374-3.067-3.068-3.067z"/><path d="m339.275 298.975c-1.694 0-3.068 1.374-3.068 3.068s1.374 3.068 3.068 3.068 3.068-1.373 3.068-3.068-1.374-3.068-3.068-3.068z"/><path d="m349.536 308.491c-1.694 0-3.068 1.373-3.068 3.068s1.374 3.068 3.068 3.068 3.068-1.373 3.068-3.068-1.374-3.068-3.068-3.068z"/><path d="m339.275 318.752c-1.694 0-3.068 1.373-3.068 3.068s1.374 3.068 3.068 3.068 3.068-1.373 3.068-3.068-1.374-3.068-3.068-3.068z"/><path d="m349.536 328.268c-1.694 0-3.068 1.373-3.068 3.068 0 1.694 1.374 3.068 3.068 3.068s3.068-1.374 3.068-3.068c0-1.695-1.374-3.068-3.068-3.068z"/><path d="m339.275 338.528c-1.694 0-3.068 1.373-3.068 3.068 0 1.694 1.374 3.068 3.068 3.068s3.068-1.374 3.068-3.068c0-1.695-1.374-3.068-3.068-3.068z"/><path d="m349.536 348.044c-1.694 0-3.068 1.374-3.068 3.068s1.374 3.067 3.068 3.067 3.068-1.373 3.068-3.067-1.374-3.068-3.068-3.068z"/><path d="m339.275 358.305c-1.694 0-3.068 1.374-3.068 3.068s1.374 3.068 3.068 3.068 3.068-1.374 3.068-3.068c0-1.695-1.374-3.068-3.068-3.068z"/><path d="m349.536 367.821c-1.694 0-3.068 1.374-3.068 3.067 0 1.695 1.374 3.068 3.068 3.068s3.068-1.374 3.068-3.068c0-1.693-1.374-3.067-3.068-3.067z"/><path d="m339.275 378.082c-1.694 0-3.068 1.374-3.068 3.068s1.374 3.068 3.068 3.068 3.068-1.374 3.068-3.068c0-1.695-1.374-3.068-3.068-3.068z"/><path d="m349.536 387.598c-1.694 0-3.068 1.374-3.068 3.068s1.374 3.068 3.068 3.068 3.068-1.373 3.068-3.068-1.374-3.068-3.068-3.068z"/><path d="m339.275 403.994c1.694 0 3.068-1.373 3.068-3.068 0-1.694-1.373-3.068-3.068-3.068-1.694 0-3.068 1.374-3.068 3.068 0 1.695 1.374 3.068 3.068 3.068z"/><path d="m349.536 407.375c-1.694 0-3.068 1.374-3.068 3.068s1.374 3.068 3.068 3.068 3.068-1.373 3.068-3.068-1.374-3.068-3.068-3.068z"/><path d="m339.275 417.635c-1.629 0-2.949 1.274-3.049 2.878h6.097c-.099-1.604-1.419-2.878-3.048-2.878z"/></g><path d="m374.032 203.52-53.326-47.26c-7.09-6.283-11.156-15.321-11.156-24.794v-74.596c8.448-3.562 14.394-11.927 14.394-21.656v-11.724c0-12.952-10.538-23.49-23.49-23.49h-89.98c-12.952 0-23.49 10.538-23.49 23.49v11.723c0 9.729 5.945 18.095 14.394 21.656v73.995c0 9.411-4.022 18.409-11.035 24.686l-53.625 47.998c-10.219 9.147-16.08 22.259-16.08 35.973v219.688c0 28.518 23.201 51.719 51.719 51.719h166.215c28.518 0 51.719-23.201 51.719-51.719v-219.558c-.001-13.805-5.927-26.974-16.259-36.131zm8.244 255.689c0 24.099-19.606 43.704-43.705 43.704h-166.215c-24.099 0-43.704-19.606-43.704-43.704v-219.689c0-11.438 4.888-22.373 13.411-30.001l53.624-47.998c8.71-7.795 13.704-18.969 13.704-30.657v-72.188c.359.016.719.027 1.082.027h89.98c.363 0 .723-.011 1.082-.027v72.79c0 11.765 5.05 22.989 13.856 30.792l53.326 47.26c8.617 7.636 13.559 18.619 13.559 30.132z" fill="#31373d"/><path d="m314.678 345.643c0 32.703-26.511 59.214-59.214 59.214s-59.214-26.511-59.214-59.214 26.511-49.9 59.214-49.9 59.214 17.197 59.214 49.9z" fill="#31373d"/><path d="m254.067 325.648-15.972-12.322-24.663-3.994c-2.822-.682-3.216-4.533-.591-5.772l14.741-5.477-3.426-12.67c-.146-2.202 2.006-3.837 4.089-3.106l26.67 11.308 28.337-11.611c2.131-.732 4.3 1 4.058 3.24l-6.902 12.839 16.456 5.241c2.525 1.271 2.143 4.987-.587 5.719l-23.491 4.546-15.927 12.059c-.876.447-1.915.447-2.792 0z" fill="#e9c278"/></g></svg>